<svg width="79" height="67" viewBox="0 0 79 67" fill="none" xmlns="http://www.w3.org/2000/svg">
<path d="M55.5 24V2M55.5 63.5V41.5M13.3594 56.2354L19.0412 49.2781M18.8412 49.6318L27.2837 56.3624M26.6243 55.8116L40.681 41.4681M40.6532 41.7507L44.6709 45.8503M10.5 65H68.5C73.1944 65 77 61.1944 77 56.5V10.5C77 5.80558 73.1944 2 68.5 2H10.5C5.80558 2 2 5.80558 2 10.5V56.5C2 61.1944 5.80558 65 10.5 65ZM64.5 32.75C64.5 37.8586 60.4706 42 55.5 42C50.5294 42 46.5 37.8586 46.5 32.75C46.5 27.6414 50.5294 23.5 55.5 23.5C60.4706 23.5 64.5 27.6414 64.5 32.75ZM60.5 32.5L56.75 34.6651V30.3349L60.5 32.5ZM50.5 32.5L54.25 30.3349V34.6651L50.5 32.5ZM35 33.75C35 37.7541 31.6421 41 27.5 41C23.3579 41 20 37.7541 20 33.75C20 29.7459 23.3579 26.5 27.5 26.5C31.6421 26.5 35 29.7459 35 33.75Z" stroke="currentColor" stroke-width="4"/>
</svg>
