<?xml version="1.0" encoding="utf-8"?>
<!-- Generator: Adobe Illustrator 24.2.3, SVG Export Plug-In . SVG Version: 6.00 Build 0)  -->
<svg version="1.1" id="Layer_1" xmlns="http://www.w3.org/2000/svg" xmlns:xlink="http://www.w3.org/1999/xlink" x="0px" y="0px"
	 viewBox="0 0 1390.8 1359.3" style="enable-background:new 0 0 1390.8 1359.3;" xml:space="preserve">
<style type="text/css">
	.st0{fill-rule:evenodd;clip-rule:evenodd;fill:#FBF5F3;}
</style>
<path id="_01" class="st0" d="M1088.3,1122.4c-39.1,46.9-77.8,72.4-142.1,112.7c-123.5,77.6-193.9,112.7-296.2,111.5
	c-119.4-1.4-221.9-12.9-283.6-132.8c-61.7-119.9-211.9-71.1-312-288.7C-1.9,803,110.4,649.5,168.1,518.6
	c45.1-102.3,44.1-242,165.6-340.4C474.8,64,587.9,24.7,664.9,13.7c59.3-8.5,119.4,8.6,165.9,46.5l341.4,278.2
	c145.1,118.3,190.9,320.1,111.3,489.6C1232.2,936.9,1151,1047.1,1088.3,1122.4z"/>
</svg>
