<svg width="44" height="10" viewBox="0 0 44 10" fill="none" xmlns="http://www.w3.org/2000/svg">
<path d="M9.91549 5C9.91549 7.76142 7.69583 10 4.95775 10C2.21966 10 0 7.76142 0 5C0 2.23858 2.21966 0 4.95775 0C7.69583 0 9.91549 2.23858 9.91549 5Z" fill="currentColor"/>
<path d="M26.6479 5C26.6479 7.76142 24.4282 10 21.6901 10C18.9521 10 16.7324 7.76142 16.7324 5C16.7324 2.23858 18.9521 0 21.6901 0C24.4282 0 26.6479 2.23858 26.6479 5Z" fill="currentColor"/>
<path d="M44 5C44 7.76142 41.7803 10 39.0423 10C36.3042 10 34.0845 7.76142 34.0845 5C34.0845 2.23858 36.3042 0 39.0423 0C41.7803 0 44 2.23858 44 5Z" fill="currentColor"/>
</svg>
