<svg width="213" height="213" viewBox="0 0 213 213" fill="none" xmlns="http://www.w3.org/2000/svg">
<g id="Frame 1">
<g id="ReadMore">
<line id="Line 16" x1="21" y1="72.5" x2="190.003" y2="72.5" stroke="#BABABA" stroke-width="4"/>
<line id="Line 18" x1="36.9753" y1="56.5" x2="123.028" y2="56.5" stroke="#CDCCCC" stroke-width="6"/>
</g>
<g id="ReadMore_2">
<line id="Line 16_2" x1="21" y1="136.5" x2="190.003" y2="136.5" stroke="#BABABA" stroke-width="4"/>
<line id="Line 17" x1="153.001" y1="138" x2="153.001" y2="106" stroke="#BABABA" stroke-width="4"/>
<line id="Line 19" x1="153.001" y1="74" x2="153.001" y2="42" stroke="#BABABA" stroke-width="4"/>
<line id="Line 18_2" x1="36.9753" y1="121.5" x2="123.028" y2="121.5" stroke="#CDCCCC" stroke-width="6"/>
</g>
<g id="ReadMore_3">
<line id="Line 16_3" x1="21" y1="104.5" x2="190.003" y2="104.5" stroke="#BABABA" stroke-width="4"/>
<line id="Line 18_3" x1="36.9753" y1="88.5" x2="156.025" y2="88.5" stroke="#CDCCCC" stroke-width="6"/>
</g>
<g id="ReadMore_4">
<line id="Line 16_4" x1="21" y1="168.5" x2="190.003" y2="168.5" stroke="#BABABA" stroke-width="4"/>
<line id="Line 17_2" x1="153.001" y1="170" x2="153.001" y2="138" stroke="#BABABA" stroke-width="4"/>
<line id="Line 18_4" x1="36.9753" y1="153.5" x2="123.028" y2="153.5" stroke="#CDCCCC" stroke-width="6"/>
</g>
<path id="Polygon 3" d="M180 56L170.25 62.9282V49.0718L180 56Z" fill="#C4C4C4"/>
<path id="Polygon 4" d="M180 122L170.25 128.928V115.072L180 122Z" fill="#C4C4C4"/>
<path id="Polygon 5" d="M180 154L170.25 160.928V147.072L180 154Z" fill="#C4C4C4"/>
</g>
</svg>
