<svg width="33" height="36" viewBox="0 0 33 36" fill="none" xmlns="http://www.w3.org/2000/svg">
<path fill-rule="evenodd" clip-rule="evenodd" d="M0 33.8837L28.8372 0L31.1218 1.94436L2.28462 35.8281L0 33.8837Z" fill="currentColor"/>
<path fill-rule="evenodd" clip-rule="evenodd" d="M8 12C10.2091 12 12 10.2091 12 7.99999C12 5.79085 10.2091 3.99999 8 3.99999C5.79086 3.99999 4 5.79085 4 7.99999C4 10.2091 5.79086 12 8 12ZM8 15C11.866 15 15 11.866 15 7.99999C15 4.134 11.866 0.999989 8 0.999989C4.13401 0.999989 1 4.134 1 7.99999C1 11.866 4.13401 15 8 15Z" fill="currentColor"/>
<path fill-rule="evenodd" clip-rule="evenodd" d="M26 31C28.0176 31 30 29.1836 30 26.5C30 23.8164 28.0176 22 26 22C23.9824 22 22 23.8164 22 26.5C22 29.1836 23.9824 31 26 31ZM26 34C29.866 34 33 30.6421 33 26.5C33 22.3579 29.866 19 26 19C22.134 19 19 22.3579 19 26.5C19 30.6421 22.134 34 26 34Z" fill="currentColor"/>
</svg>
