<svg width="83" height="51" viewBox="0 0 83 51" fill="none" xmlns="http://www.w3.org/2000/svg">
<path d="M11 23.5C11 26.5376 8.53757 29 5.5 29C2.46243 29 0 26.5376 0 23.5C0 20.4624 2.46243 18 5.5 18C8.53757 18 11 20.4624 11 23.5Z" fill="currentColor"/>
<path d="M35 42H83V48H35V42Z" fill="currentColor"/>
<path d="M21 20H83V26H21V20Z" fill="currentColor"/>
<path d="M0 0H83V6H0V0Z" fill="currentColor"/>
<path d="M11 45.5C11 48.5376 8.53757 51 5.5 51C2.46243 51 0 48.5376 0 45.5C0 42.4624 2.46243 40 5.5 40C8.53757 40 11 42.4624 11 45.5Z" fill="currentColor"/>
<path d="M27 45.5C27 48.5376 24.5376 51 21.5 51C18.4624 51 16 48.5376 16 45.5C16 42.4624 18.4624 40 21.5 40C24.5376 40 27 42.4624 27 45.5Z" fill="currentColor"/>
</svg>
