<svg width="10" height="11" viewBox="0 0 10 11" fill="none" xmlns="http://www.w3.org/2000/svg">
<path d="M1.69727 9.95898C1.55273 10.0645 1.38672 10.1172 1.19922 10.1172C1.01562 10.1172 0.869141 10.0703 0.759766 9.97656C0.646484 9.87891 0.589844 9.76758 0.589844 9.64258C0.589844 9.51758 0.609375 9.42578 0.648438 9.36719C0.761719 9.43359 0.900391 9.4668 1.06445 9.4668C1.23242 9.4668 1.35742 9.44531 1.43945 9.40234C1.52539 9.35547 1.60742 9.29297 1.68555 9.21484L2.51758 6.74805L2.63477 6.34375C2.66992 6.22266 2.6875 6.11133 2.6875 6.00977C2.6875 5.6543 2.51953 5.42773 2.18359 5.33008C2.49219 5.21289 2.70898 5.08594 2.83398 4.94922C3.0293 4.73438 3.18359 4.45117 3.29688 4.09961L3.94141 1.9375C3.81641 1.76953 3.66797 1.68555 3.49609 1.68555C3.32422 1.68555 3.16406 1.72266 3.01562 1.79688C2.97656 1.72656 2.95703 1.64844 2.95703 1.5625C2.95703 1.47266 2.97461 1.38867 3.00977 1.31055C3.04883 1.23242 3.10156 1.16406 3.16797 1.10547C3.31641 0.980469 3.52734 0.917969 3.80078 0.917969C4.07422 0.917969 4.30664 1 4.49805 1.16406C4.69336 1 4.93555 0.917969 5.22461 0.917969C5.51758 0.917969 5.75 0.996094 5.92188 1.15234C6.17188 0.996094 6.42578 0.917969 6.68359 0.917969C6.94141 0.917969 7.14062 0.966797 7.28125 1.06445C7.42578 1.16211 7.49805 1.29492 7.49805 1.46289C7.49805 1.54102 7.47461 1.60938 7.42773 1.66797C7.33789 1.60156 7.23242 1.56836 7.11133 1.56836C6.84961 1.56836 6.67969 1.74609 6.60156 2.10156L7.35156 4.49805C7.44531 4.79883 7.67969 5.0332 8.05469 5.20117C8.16016 5.24805 8.26758 5.29102 8.37695 5.33008C7.98633 5.45898 7.79102 5.65234 7.79102 5.91016C7.79102 6.00781 7.80664 6.09375 7.83789 6.16797L8.95703 9.16797C9.12891 9.34766 9.30273 9.4375 9.47852 9.4375C9.6543 9.4375 9.79102 9.4043 9.88867 9.33789C9.93164 9.36914 9.95312 9.42773 9.95312 9.51367C9.95312 9.59961 9.93945 9.67969 9.91211 9.75391C9.88477 9.82422 9.8418 9.88672 9.7832 9.94141C9.6582 10.0586 9.47461 10.1172 9.23242 10.1172C8.99023 10.1172 8.7793 10.0508 8.59961 9.91797C8.39648 10.0508 8.16602 10.1172 7.9082 10.1172C7.6543 10.1172 7.43555 10.0527 7.25195 9.92383C7.07617 10.0527 6.86914 10.1172 6.63086 10.1172C6.39258 10.1172 6.19531 10.0684 6.03906 9.9707C5.88281 9.86914 5.80078 9.72656 5.79297 9.54297C5.79297 9.43359 5.81445 9.36523 5.85742 9.33789C5.96289 9.4043 6.07031 9.4375 6.17969 9.4375C6.41016 9.4375 6.57227 9.39062 6.66602 9.29688L6.2207 7.80273H3.05078L2.66406 9.09766C2.82422 9.34375 3.01758 9.4668 3.24414 9.4668C3.47461 9.4668 3.64648 9.43359 3.75977 9.36719C3.80273 9.4375 3.82422 9.53516 3.82422 9.66016C3.82422 9.78125 3.76367 9.88867 3.64258 9.98242C3.52148 10.0723 3.36523 10.1172 3.17383 10.1172C2.98242 10.1172 2.80664 10.0684 2.64648 9.9707C2.50586 10.0684 2.34375 10.1172 2.16016 10.1172C1.98047 10.1172 1.82617 10.0645 1.69727 9.95898ZM5.98047 7.01172L4.62109 2.49414L3.28516 7.01172H5.98047ZM7.09961 8.44727C7.16992 8.44727 7.20508 8.36914 7.20508 8.21289C7.20508 7.93945 7.16406 7.67383 7.08203 7.41602L6.85938 6.73047C6.70312 6.21484 6.625 5.89062 6.625 5.75781C6.62109 5.53906 6.7168 5.39453 6.91211 5.32422C6.64258 5.26953 6.47852 5.18555 6.41992 5.07227C6.39258 5.02539 6.36914 4.98828 6.34961 4.96094C6.33398 4.93359 6.31641 4.90234 6.29688 4.86719C6.28125 4.82812 6.26172 4.7793 6.23828 4.7207C6.21484 4.66211 6.18359 4.57812 6.14453 4.46875L5.78125 3.37305C5.69531 3.09961 5.56836 2.89258 5.40039 2.75195C5.34961 2.70898 5.30273 2.68359 5.25977 2.67578C5.52148 3.62109 5.69336 4.22656 5.77539 4.49219C6.3418 6.23438 6.68164 7.26758 6.79492 7.5918L7.09961 8.44727ZM8.82812 8.97461L8.83984 9.00977L8.82812 8.97461Z" fill="currentColor"/>
</svg>
