<svg width="109" height="91" viewBox="0 0 109 91" fill="none" xmlns="http://www.w3.org/2000/svg">
<path d="M0 16C0 14.3431 1.34315 13 3 13H106C107.657 13 109 14.3431 109 16V54C109 55.6569 107.657 57 106 57H3C1.34314 57 0 55.6569 0 54V16Z" fill="currentColor"/>
<path d="M0 71C0 69.3431 1.34315 68 3 68H106C107.657 68 109 69.3431 109 71V73C109 74.6569 107.657 76 106 76H3C1.34314 76 0 74.6569 0 73V71Z" fill="currentColor"/>
<path d="M0 3C0 1.34315 1.34315 0 3 0H106C107.657 0 109 1.34315 109 3V5C109 6.65685 107.657 8 106 8H3C1.34314 8 0 6.65685 0 5V3Z" fill="currentColor"/>
<path d="M0 86C0 84.3431 1.34315 83 3 83H106C107.657 83 109 84.3431 109 86V88C109 89.6569 107.657 91 106 91H3C1.34314 91 0 89.6569 0 88V86Z" fill="currentColor"/>
</svg>
