<svg width="10" height="11" viewBox="0 0 10 11" fill="none" xmlns="http://www.w3.org/2000/svg">
<path d="M3.25781 9.93555C3.0625 10.0566 2.8418 10.1172 2.5957 10.1172C2.34961 10.1172 2.13867 10.0547 1.96289 9.92969C1.76367 10.0547 1.58008 10.1172 1.41211 10.1172C1.24414 10.1172 1.10547 10.1016 0.996094 10.0703C0.886719 10.043 0.792969 10.0039 0.714844 9.95312C0.542969 9.85156 0.457031 9.72461 0.457031 9.57227C0.457031 9.49414 0.478516 9.42578 0.521484 9.36719C0.607422 9.43359 0.716797 9.4668 0.849609 9.4668C1.19727 9.4668 1.4375 9.31836 1.57031 9.02148V6.15625C1.57031 5.85156 1.41797 5.62109 1.11328 5.46484L0.855469 5.33008C1.20312 5.16992 1.42188 4.99609 1.51172 4.80859C1.55078 4.72266 1.57031 4.61719 1.57031 4.49219V2.01953C1.4375 1.71875 1.19727 1.56836 0.849609 1.56836C0.716797 1.56836 0.607422 1.60156 0.521484 1.66797C0.478516 1.60938 0.457031 1.54297 0.457031 1.46875C0.457031 1.39062 0.478516 1.31836 0.521484 1.25195C0.568359 1.18555 0.632812 1.12891 0.714844 1.08203C0.890625 0.972656 1.0918 0.917969 1.31836 0.917969C1.54883 0.917969 1.76367 0.980469 1.96289 1.10547C2.13867 0.980469 2.34961 0.917969 2.5957 0.917969C2.8457 0.917969 3.06641 0.980469 3.25781 1.10547C3.44141 0.980469 3.64648 0.917969 3.87305 0.917969C4.20508 0.917969 4.44141 1.0293 4.58203 1.25195C4.62891 1.32227 4.65234 1.39648 4.65234 1.47461C4.65234 1.55273 4.62891 1.61719 4.58203 1.66797C4.49609 1.60156 4.38867 1.56836 4.25977 1.56836C3.95898 1.56836 3.75781 1.71484 3.65625 2.00781V5.10156H6.42773V2.00781C6.32617 1.71484 6.125 1.56836 5.82422 1.56836C5.69531 1.56836 5.58789 1.60156 5.50195 1.66797C5.45508 1.61719 5.43164 1.55273 5.43164 1.47461C5.43164 1.39648 5.45312 1.32227 5.49609 1.25195C5.54297 1.18164 5.60156 1.12109 5.67188 1.07031C5.82031 0.96875 6 0.917969 6.21094 0.917969C6.4375 0.917969 6.64258 0.980469 6.82617 1.10547C7.02539 0.980469 7.24609 0.917969 7.48828 0.917969C7.73438 0.917969 7.94531 0.980469 8.12109 1.10547C8.3125 0.980469 8.49414 0.917969 8.66602 0.917969C8.83789 0.917969 8.97852 0.933594 9.08789 0.964844C9.19727 0.992188 9.29297 1.03125 9.375 1.08203C9.54297 1.18359 9.62695 1.31055 9.62695 1.46289C9.62695 1.54102 9.60547 1.60938 9.5625 1.66797C9.47656 1.60156 9.36719 1.56836 9.23438 1.56836C8.88672 1.56836 8.64648 1.71875 8.51367 2.01953V4.49219C8.51367 4.79688 8.66406 5.0332 8.96484 5.20117C9.05078 5.24805 9.13867 5.29102 9.22852 5.33008C8.99414 5.44336 8.83594 5.53516 8.75391 5.60547C8.59375 5.75391 8.51367 5.9375 8.51367 6.15625V9.02148C8.64648 9.31836 8.88672 9.4668 9.23438 9.4668C9.36719 9.4668 9.47656 9.43359 9.5625 9.36719C9.60547 9.42578 9.62695 9.49414 9.62695 9.57227C9.62695 9.64648 9.60352 9.7168 9.55664 9.7832C9.51367 9.84961 9.45312 9.90625 9.375 9.95312C9.19531 10.0625 8.98828 10.1172 8.75391 10.1172C8.52344 10.1172 8.3125 10.0547 8.12109 9.92969C7.94531 10.0547 7.73438 10.1172 7.48828 10.1172C7.24609 10.1172 7.02539 10.0547 6.82617 9.92969C6.64258 10.0547 6.4375 10.1172 6.21094 10.1172C5.87891 10.1172 5.64062 10.0059 5.49609 9.7832C5.45312 9.71289 5.43164 9.63867 5.43164 9.56055C5.43164 9.48242 5.45508 9.41797 5.50195 9.36719C5.58789 9.43359 5.69531 9.4668 5.82422 9.4668C6.125 9.4668 6.32617 9.32031 6.42773 9.02734V5.93945H3.65625V9.02734C3.75781 9.32031 3.95898 9.4668 4.25977 9.4668C4.38867 9.4668 4.49609 9.43359 4.58203 9.36719C4.62891 9.41797 4.65234 9.48242 4.65234 9.56055C4.65234 9.63867 4.62891 9.71289 4.58203 9.7832C4.53906 9.85352 4.48047 9.91406 4.40625 9.96484C4.26562 10.0664 4.08789 10.1172 3.87305 10.1172C3.65039 10.1172 3.44531 10.0566 3.25781 9.93555ZM6.91406 4.07617C6.91016 4.49414 6.9082 5.1875 6.9082 6.15625C6.9082 7.125 6.92188 7.69531 6.94922 7.86719C7 8.19531 7.10156 8.38867 7.25391 8.44727V7.68555C7.25391 6.64648 7.26172 6.06055 7.27734 5.92773C7.29297 5.79102 7.30859 5.69531 7.32422 5.64062C7.35938 5.50391 7.47852 5.40039 7.68164 5.33008C7.50195 5.27539 7.38281 5.16406 7.32422 4.99609C7.27734 4.80859 7.25391 4.03516 7.25391 2.67578C7.10156 2.74609 7.00781 2.88672 6.97266 3.09766C6.9375 3.32812 6.91797 3.6543 6.91406 4.07617ZM2.13281 8.44727C2.32031 8.37305 2.42578 8.11719 2.44922 7.67969C2.46875 7.24219 2.47852 6.63672 2.47852 5.86328C2.47852 5.08984 2.47656 4.57617 2.47266 4.32227C2.47266 4.06445 2.4707 3.85742 2.4668 3.70117C2.45508 3.24414 2.41211 2.9668 2.33789 2.86914C2.26758 2.77148 2.19922 2.70703 2.13281 2.67578C2.13281 4.03516 2.10938 4.80859 2.0625 4.99609C2.00781 5.15234 1.875 5.26367 1.66406 5.33008C1.89844 5.41211 2.03125 5.51172 2.0625 5.62891C2.10938 5.81641 2.13281 6.50195 2.13281 7.68555V8.44727Z" fill="currentColor"/>
</svg>
