<svg width="213" height="213" viewBox="0 0 213 213" fill="none" xmlns="http://www.w3.org/2000/svg">
<g id="Frame 1">
<g id="ReadMore">
<rect id="Rectangle 4" x="25" y="31" width="162" height="150" rx="13" stroke="#BABABA" stroke-width="4"/>
<line id="Line 16" x1="77" y1="56" x2="162" y2="56" stroke="#BABABA" stroke-width="4"/>
<line id="Line 19" x1="48" y1="106" x2="162" y2="106" stroke="#BABABA" stroke-width="4"/>
<line id="Line 17" x1="77" y1="73" x2="162" y2="73" stroke="#BABABA" stroke-width="4"/>
<line id="Line 20" x1="48" y1="121" x2="162" y2="121" stroke="#BABABA" stroke-width="4"/>
<line id="Line 18" x1="48" y1="90" x2="162" y2="90" stroke="#BABABA" stroke-width="4"/>
<line id="Line 21" x1="48" y1="135" x2="162" y2="135" stroke="#BABABA" stroke-width="4"/>
<path id="Arrow 1" d="M154.646 160.354C154.842 160.549 155.158 160.549 155.354 160.354L158.536 157.172C158.731 156.976 158.731 156.66 158.536 156.464C158.34 156.269 158.024 156.269 157.828 156.464L155 159.293L152.172 156.464C151.976 156.269 151.66 156.269 151.464 156.464C151.269 156.66 151.269 156.976 151.464 157.172L154.646 160.354ZM154.5 151V160H155.5V151H154.5Z" fill="#BABABA"/>
<path id="Read More" d="M92.1191 156.549H90.1152V160H88.9844V151.469H91.8086C92.7695 151.469 93.5078 151.688 94.0234 152.125C94.543 152.562 94.8027 153.199 94.8027 154.035C94.8027 154.566 94.6582 155.029 94.3691 155.424C94.084 155.818 93.6855 156.113 93.1738 156.309L95.1777 159.93V160H93.9707L92.1191 156.549ZM90.1152 155.629H91.8438C92.4023 155.629 92.8457 155.484 93.1738 155.195C93.5059 154.906 93.6719 154.52 93.6719 154.035C93.6719 153.508 93.5137 153.104 93.1973 152.822C92.8848 152.541 92.4316 152.398 91.8379 152.395H90.1152V155.629ZM98.8457 160.117C97.9863 160.117 97.2871 159.836 96.748 159.273C96.209 158.707 95.9395 157.951 95.9395 157.006V156.807C95.9395 156.178 96.0586 155.617 96.2969 155.125C96.5391 154.629 96.875 154.242 97.3047 153.965C97.7383 153.684 98.207 153.543 98.7109 153.543C99.5352 153.543 100.176 153.814 100.633 154.357C101.09 154.9 101.318 155.678 101.318 156.689V157.141H97.0234C97.0391 157.766 97.2207 158.271 97.5684 158.658C97.9199 159.041 98.3652 159.232 98.9043 159.232C99.2871 159.232 99.6113 159.154 99.877 158.998C100.143 158.842 100.375 158.635 100.574 158.377L101.236 158.893C100.705 159.709 99.9082 160.117 98.8457 160.117ZM98.7109 154.434C98.2734 154.434 97.9062 154.594 97.6094 154.914C97.3125 155.23 97.1289 155.676 97.0586 156.25H100.234V156.168C100.203 155.617 100.055 155.191 99.7891 154.891C99.5234 154.586 99.1641 154.434 98.7109 154.434ZM106.492 160C106.43 159.875 106.379 159.652 106.34 159.332C105.836 159.855 105.234 160.117 104.535 160.117C103.91 160.117 103.396 159.941 102.994 159.59C102.596 159.234 102.396 158.785 102.396 158.242C102.396 157.582 102.646 157.07 103.146 156.707C103.65 156.34 104.357 156.156 105.268 156.156H106.322V155.658C106.322 155.279 106.209 154.979 105.982 154.756C105.756 154.529 105.422 154.416 104.98 154.416C104.594 154.416 104.27 154.514 104.008 154.709C103.746 154.904 103.615 155.141 103.615 155.418H102.525C102.525 155.102 102.637 154.797 102.859 154.504C103.086 154.207 103.391 153.973 103.773 153.801C104.16 153.629 104.584 153.543 105.045 153.543C105.775 153.543 106.348 153.727 106.762 154.094C107.176 154.457 107.391 154.959 107.406 155.6V158.518C107.406 159.1 107.48 159.562 107.629 159.906V160H106.492ZM104.693 159.174C105.033 159.174 105.355 159.086 105.66 158.91C105.965 158.734 106.186 158.506 106.322 158.225V156.924H105.473C104.145 156.924 103.48 157.312 103.48 158.09C103.48 158.43 103.594 158.695 103.82 158.887C104.047 159.078 104.338 159.174 104.693 159.174ZM108.842 156.777C108.842 155.805 109.072 155.023 109.533 154.434C109.994 153.84 110.598 153.543 111.344 153.543C112.086 153.543 112.674 153.797 113.107 154.305V151H114.191V160H113.195L113.143 159.32C112.709 159.852 112.105 160.117 111.332 160.117C110.598 160.117 109.998 159.816 109.533 159.215C109.072 158.613 108.842 157.828 108.842 156.859V156.777ZM109.926 156.9C109.926 157.619 110.074 158.182 110.371 158.588C110.668 158.994 111.078 159.197 111.602 159.197C112.289 159.197 112.791 158.889 113.107 158.271V155.359C112.783 154.762 112.285 154.463 111.613 154.463C111.082 154.463 110.668 154.668 110.371 155.078C110.074 155.488 109.926 156.096 109.926 156.9ZM120.479 151.469L123.268 158.43L126.057 151.469H127.516V160H126.391V156.678L126.496 153.092L123.695 160H122.834L120.039 153.109L120.15 156.678V160H119.025V151.469H120.479ZM129.045 156.771C129.045 156.15 129.166 155.592 129.408 155.096C129.654 154.6 129.994 154.217 130.428 153.947C130.865 153.678 131.363 153.543 131.922 153.543C132.785 153.543 133.482 153.842 134.014 154.439C134.549 155.037 134.816 155.832 134.816 156.824V156.9C134.816 157.518 134.697 158.072 134.459 158.564C134.225 159.053 133.887 159.434 133.445 159.707C133.008 159.98 132.504 160.117 131.934 160.117C131.074 160.117 130.377 159.818 129.842 159.221C129.311 158.623 129.045 157.832 129.045 156.848V156.771ZM130.135 156.9C130.135 157.604 130.297 158.168 130.621 158.594C130.949 159.02 131.387 159.232 131.934 159.232C132.484 159.232 132.922 159.018 133.246 158.588C133.57 158.154 133.732 157.549 133.732 156.771C133.732 156.076 133.566 155.514 133.234 155.084C132.906 154.65 132.469 154.434 131.922 154.434C131.387 154.434 130.955 154.646 130.627 155.072C130.299 155.498 130.135 156.107 130.135 156.9ZM139.24 154.633C139.076 154.605 138.898 154.592 138.707 154.592C137.996 154.592 137.514 154.895 137.26 155.5V160H136.176V153.66H137.23L137.248 154.393C137.604 153.826 138.107 153.543 138.76 153.543C138.971 153.543 139.131 153.57 139.24 153.625V154.633ZM142.756 160.117C141.896 160.117 141.197 159.836 140.658 159.273C140.119 158.707 139.85 157.951 139.85 157.006V156.807C139.85 156.178 139.969 155.617 140.207 155.125C140.449 154.629 140.785 154.242 141.215 153.965C141.648 153.684 142.117 153.543 142.621 153.543C143.445 153.543 144.086 153.814 144.543 154.357C145 154.9 145.229 155.678 145.229 156.689V157.141H140.934C140.949 157.766 141.131 158.271 141.479 158.658C141.83 159.041 142.275 159.232 142.814 159.232C143.197 159.232 143.521 159.154 143.787 158.998C144.053 158.842 144.285 158.635 144.484 158.377L145.146 158.893C144.615 159.709 143.818 160.117 142.756 160.117ZM142.621 154.434C142.184 154.434 141.816 154.594 141.52 154.914C141.223 155.23 141.039 155.676 140.969 156.25H144.145V156.168C144.113 155.617 143.965 155.191 143.699 154.891C143.434 154.586 143.074 154.434 142.621 154.434Z" fill="#BABABA"/>
<path id="A" d="M65.5786 70.1348H54.5581L52.083 77H48.5059L58.5508 50.6953H61.5859L71.6489 77H68.0898L65.5786 70.1348ZM55.606 67.2803H64.5488L60.0684 54.9771L55.606 67.2803Z" fill="#BABABA"/>
</g>
</g>
</svg>
